<svg
  xmlns="http://www.w3.org/2000/svg"
  xmlns:xlink="http://www.w3.org/1999/xlink"
  viewBox="0 0 576 512"
  version="1.1"
  fill="#000000"
>
  <g id="SVGRepo_bgCarrier" stroke-width="0"></g>
  <g
    id="SVGRepo_tracerCarrier"
    stroke-linecap="round"
    stroke-linejoin="round"
  ></g>
  <g id="SVGRepo_iconCarrier">
    <path
      fill="#000000"
      d="M560,256h-98.33l-41.35-41.35c-4.69-4.69-12.29-4.69-16.97,0L320,256H64c-35.29,0-64,28.71-64,64v64c0,35.29,28.71,64,64,64h256v32H64c-17.67,0-32-14.33-32-32v-32c0-17.67,14.33-32,32-32h226.34l41.35-41.35c4.69-4.69,12.28-4.69,16.97,0L462.36,320H560c35.29,0,64-28.71,64-64v-64C624,284.71,595.29,256,560,256zM64,336c-8.82,0-16-7.18-16-16v-64c0-8.82,7.18-16,16-16h256v96H64z"
    ></path>
    <path
      fill="#000000"
      d="M558.63,192H462.36l-41.35,41.35c-4.69,4.69-12.28,4.69-16.97,0L320,192H64c-35.29,0-64,28.71-64,64v64c0,35.29,28.71,64,64,64h256v32H64c-17.67,0-32-14.33-32-32v-32c0-17.67,14.33-32,32-32h196.34l41.35-41.35c4.69-4.69,12.28-4.69,16.97,0L460.36,320H558.63c35.29,0,64-28.71,64-64v-64C622.63,220.71,593.92,192,558.63,192zM64,336c-8.82,0-16-7.18-16-16v-64c0-8.82,7.18-16,16-16h196.34l41.35,41.35c4.69,4.69,12.29,4.69,16.97,0L462.36,320H560c8.82,0,16,7.18,16,16v64c0,8.82-7.18,16-16,16H64z"
    ></path>
  </g>
</svg>
