<svg
  version="1.1"
  id="Layer_1"
  xmlns="http://www.w3.org/2000/svg"
  xmlns:xlink="http://www.w3.org/1999/xlink"
  x="0px"
  y="0px"
  viewBox="0 0 256 288"
  enable-background="new 0 0 256 288"
  xml:space="preserve"
>
  <style type="text/css">
    .st0 {
      fill: #8CC84B;
    }
    .st1 {
      fill: #FFFFFF;
    }
  </style>
  <path
    class="st0"
    d="M116.8,1.2c-2.6,0.6-6.1,1.5-7.8,2.1c-1.7,0.6-26.1,14.7-54.5,31.3L4.4,83.4v119.5v119.5l50.1-28.9
    c27.6-15.9,53-30.7,56.4-32.7c6.9-4.1,10.1-5.4,18.4-5.7c6.5-0.2,8.5,0,11.8,1.2c5.8,2.1,8.5,4.1,13.5,9.7
    c3.1,3.3,7.8,8.3,10.5,11.1c10.3,10.4,25.2,19.5,39.2,24.4c11.2,3.8,28.2,5.6,39.8,4.2c12.8-1.5,26.3-6.2,36.3-12.5
    c5.1-3.4,14.3-12.3,18.1-17.7c4.1-5.9,8.6-15.4,10.9-22.3c1.5-4.4,1.9-8.7,2.3-20.4c0.5-14.3,0.3-16.1-1.4-20.4
    c-3.2-8.4-8.2-14.3-15.8-19.1c-3.2-2.1-4.3-2.4-8.9-2.4c-3.9,0-5.7,0.4-8.4,2c-1.9,1.1-5.8,4.9-8.7,8.3
    c-4.4,5.3-5.8,6.5-9.2,8.1c-4.2,1.9-6.2,2.2-14.2,2.1c-8.1-0.1-9.6-0.4-13.5-2.3c-4.4-2.2-9.6-6.9-12.1-11.1
    c-2.3-3.8-2.8-6.2-2.8-11.8c0-5.8,0.4-8,2.2-11.4c3.5-6.8,8.9-11.4,18.4-15.5c4.7-2.1,6.8-3.3,11.1-6.9
    c7.8-6.8,12.9-15.4,14.5-24.5c0.8-4.7,0.5-15.4-0.5-19.7c-5-20.3-21.4-34.5-45.7-38.7c-4.4-0.8-17.3-1.4-22.8-1L172.8,71
    l-1.1-7.2c-1.7-10.3-6.4-20.2-12.5-26.6c-2.7-3-8.3-7.5-12.1-9.7c-2.1-1.1-7-3-10.8-4.1c-6-1.6-8.7-1.9-17.4-2.1
    C124.6,20.9,118.1,21.4,116.8,1.2z"
  />
  <path
    class="st1"
    d="M121.1,65.8c2.6,0.5,5.8,2.4,8.7,5.2c4.8,4.8,6.6,10.1,6.6,20.7c0,6.4-0.3,8.7-2.1,12.3c-4.5,9.2-15.3,14.4-27.2,12.7
    c-3.7-0.5-9.4-3.3-11.3-5.3c-1.1-1.2-2.8-3.9-3.8-6.1c-1.6-3.6-1.8-5.9-1.8-13.2c0-6.9,0.3-9.7,1.8-12.8c2.3-5.2,8.3-10.4,14.4-12
    C110.5,66.1,117.2,65.3,121.1,65.8z"
  />
  <path
    class="st1"
    d="M177.8,164.8c-2.8,0.8-5.3,2.4-5.3,3.6c0,0.3,0.5,0.6,1.1,0.6c0.7,0,2.6,0.9,4.3,2.1c2.3,1.5,2.8,2.4,3.2,6.1
    c0.3,2.3,1.1,4.5,1.6,4.8c0.6,0.3,4.5,0.6,8.6,0.6h7.5l-0.6-3c-0.8-4-3-7.3-6.2-8.8c-1.8-0.9-2.8-1-7.8-0.8
    C179.8,164.1,179,164.3,177.8,164.8z"
  />
  <path
    class="st1"
    d="M118.5,166.4c-7.1,1.8-11.4,6.7-11.6,13.2c-0.2,4.5,1.3,7.3,5.6,10.4c3.1,2.3,7.1,3.2,14.8,3.2h6.9v-5.8v-5.8l-6.8-0.3
    c-6.1-0.3-7.3-0.5-9-2.1c-2-1.8-2.5-3.2-2.5-6.4c0-2.9,0.3-3.9,1.7-5.3c1.6-1.6,2.6-1.8,8.8-1.8h7.1v-5.9v-5.8L126,165
    C123.7,164.9,120.1,165.5,118.5,166.4z"
  />
  <path
    class="st1"
    d="M144.2,172.1c0,5.7,0,5.9,1.8,6.5c2.7,0.9,10.3,0.6,11.2-0.4c1-1,1.2-10.4,0.2-11.4c-1.3-1.3-13.2-0.9-13.2,0.4
    C144.2,167.9,144.2,170.7,144.2,172.1z"
  />
  <path
    class="st1"
    d="M216.4,172.4c0,0.7,0.5,0.9,1.6,0.7c0.9-0.1,2.2-0.4,3-0.7c0.8-0.3,2.3-0.6,3.4-0.6c1.7,0,2,0.3,1.4,1.4
    c-1.4,2.7-1.4,2.5,0.6,3.6c3.1,1.7,6.7,1.4,9.1-0.7c2.3-2,2.8-4.9,1.4-6.6c-0.6-0.7-2-0.7-5.8-0.1c-6.3,1-8.6,1-8.6-0.1
    c0-0.5,1.5-1.3,3.3-1.7c3.4-0.7,4.5-1.6,4.5-3.7c0-3.8-5.8-5.1-9.3-2.2c-1.2,1-1.5,2-1.5,5C217.5,170.7,216.4,172.4,216.4,172.4z"
  />
</svg>
