<svg
  xmlns="http://www.w3.org/2000/svg"
  xmlns:xlink="http://www.w3.org/1999/xlink"
  viewBox="0 0 64 64"
  width="64"
  height="64"
>
  <path
    fill="#EF5B25"
    d="M32 0C14.327 0 0 14.327 0 32c0 17.673 14.327 32 32 32 17.673 0 32-14.327 32-32C64 14.327 49.673 0 32 0zM9.454 42.545L6.418 31.973l4.752-2.861c.738-.446 1.394-.219 1.823.53l5.743 10.117-9.282 3.786zm5.687-11.787l3.021-1.825 6.494 11.42-6.32 2.58L15.143 30.3c-.42-.748-.276-1.341.2-1.563zM25.6 53.6l-5.143-9.229 3.005-1.822 5.186 9.275-3.048 1.776zm10.498-8.629l-7.21-12.85 6.493-2.58 7.143 12.773-6.426 2.657zm3.02-9.25l-9.282-3.786 5.744-10.117c.429-.75 1.085-.976 1.823-.53l4.778 2.875-4.776 9.272zm1.825-9.79L34.29 7.634c-.517-.93-1.415-1.225-2.174-.665L22.196 15.954l7.393 13.165 5.334-2.167 5.14-2.117c.421-.171.732-.041.933.354l4.91 8.755c.214.394.178.803-.116 1.086l-4.29 4.214c-.295.289-.684.362-1.038.194l-1.917-.69c-.354-.127-.618-.393-.72-.728l-2.047-5.175 4.783-2.272 4.666-2.235c.432-.205.824-.078 1.074.328l2.04 3.464c.291.495.245 1.024-.113 1.399l-4.67 4.587c-.334.329-.787.454-1.219.327l-1.874-.627c-.433-.125-.776-.421-.922-.819l-1.142-3.268-4.858 1.922 5.24 9.328c.325.583.262 1.254-.162 1.735l-3.274 3.217c-.432.426-.999.566-1.524.35L27.215 45.083c-.517-.167-.882-.579-.982-1.081l-.672-2.81 9.496-3.875 5.142 9.228c.304.545.201 1.171-.265 1.613l-3.23 3.172c-.467.458-1.075.564-1.617.263L26.95 47.35c-.543-.304-.731-.866-.484-1.334l1.918-3.743L28.945 32.7l-3.438 2.109c-.469.289-1.056.268-1.514-.064l-1.768-1.115c-.455-.289-.737-.777-.759-1.322L23.77 10.6c-.019-.529.213-1.04.64-1.368l9.785-7.787c.553-.44 1.326-.299 1.744.285L46.49 9.876c.422.587.51 1.317.23 1.962l-3.456 8.48-4.863 11.941c-.279.687-.905 1.103-1.614 1.038z"
  ></path>
</svg>
